<svg t="1737103885033" class="icon" viewBox="0 0 1024 1024" version="1.1"
  xmlns="http://www.w3.org/2000/svg" p-id="2674" width="200" height="200">
  <path
    d="M900.096 123.093333a203.989333 203.989333 0 0 0-288.426667 0l-179.669333 179.712a35.968 35.968 0 0 0 0 51.114667 35.968 35.968 0 0 0 51.114667 0l179.669333-179.712a131.754667 131.754667 0 0 1 224.725333 93.013333c0 35.157333-13.696 68.181333-38.613333 93.013334l-179.626667 179.626666a35.968 35.968 0 0 0 25.6 61.653334 36.266667 36.266667 0 0 0 25.6-10.496l179.712-179.712a203.861333 203.861333 0 0 0-0.085333-288.213334zM376.576 280.192a36.010667 36.010667 0 0 0 36.138667-36.096L412.586667 99.2a36.010667 36.010667 0 0 0-36.096-36.096 36.010667 36.010667 0 0 0-36.096 36.096v144.981333a35.413333 35.413333 0 0 0 10.666666 25.429334 36.138667 36.138667 0 0 0 25.557334 10.581333zM809.130667 756.053333a35.669333 35.669333 0 0 0-25.472-10.410666 36.096 36.096 0 0 0-25.6 61.610666l102.485333 102.4a35.968 35.968 0 0 0 51.114667 0 35.968 35.968 0 0 0 0-51.114666l-102.528-102.485334z m114.517333-145.92h-145.024a35.413333 35.413333 0 0 0-25.386667 10.709334 36.010667 36.010667 0 0 0 25.386667 61.610666l144.938667-0.128a36.010667 36.010667 0 0 0 36.096-36.096 35.84 35.84 0 0 0-36.010667-36.096z m-275.925333 131.925334a36.010667 36.010667 0 0 0-36.096 36.096l0.128 144.896a36.010667 36.010667 0 0 0 36.096 36.096 36.010667 36.010667 0 0 0 36.096-36.096v-145.024a35.413333 35.413333 0 0 0-10.666667-25.386667 36.138667 36.138667 0 0 0-25.557333-10.581333z m-106.88-73.6l-179.626667 179.669333a130.901333 130.901333 0 0 1-93.013333 38.613333 130.304 130.304 0 0 1-92.970667-38.613333 131.157333 131.157333 0 0 1-0.085333-185.984l179.712-179.712a35.968 35.968 0 0 0 0-51.072 35.968 35.968 0 0 0-51.114667 0l-179.712 179.498667a202.581333 202.581333 0 0 0-59.776 144.213333c0 54.357333 21.205333 105.685333 59.776 144.085333a203.221333 203.221333 0 0 0 144.128 59.690667c52.181333 0 104.490667-19.925333 144.085333-59.733333l179.797334-179.584a35.968 35.968 0 0 0 0-51.072 36.266667 36.266667 0 0 0-51.2 0zM215.210667 266.197333c7.210667 6.997333 16.213333 10.496 25.472 10.410667a36.096 36.096 0 0 0 25.6-61.610667L163.84 112.682667a35.968 35.968 0 0 0-51.114667 0 35.968 35.968 0 0 0 0 51.114666l102.528 102.4zM100.693333 412.202667H245.76a35.413333 35.413333 0 0 0 25.386667-10.666667 36.010667 36.010667 0 0 0-25.386667-61.653333l-144.938667 0.128a36.010667 36.010667 0 0 0-36.096 36.096 35.754667 35.754667 0 0 0 36.010667 36.096z"
    fill="#000000" opacity=".65" p-id="2675"></path>
</svg>