<svg t="1735484868961" class="icon" viewBox="0 0 1024 1024" version="1.1"
    xmlns="http://www.w3.org/2000/svg" p-id="5088" width="200" height="200">
    <path
        d="M125.28 833.023c43.797-13.512 91.322-4.193 110.891-54.513l110.425-287.012 130.46-337.331L512 154.167l24.694 0c1.863 3.262 3.728 6.523 5.125 9.785l95.515 223.645c34.945 82.469 67.094 165.87 102.505 247.873 20.966 48.456 37.273 98.311 60.57 145.835 3.262 7.455 9.784 21.433 16.307 26.558 15.376 12.114 58.241 14.91 80.14 23.297 1.398 8.853 2.796 17.705 2.796 26.558 0 4.193-0.466 7.921-0.466 12.114-59.173 0-118.346-7.455-177.519-7.455-61.036 0-122.072 5.125-183.109 6.989 0-12.114 0.466-24.229 1.864-36.343l61.036-13.046c12.58-2.795 37.274-6.057 37.274-23.296 0-16.773-60.104-155.154-67.56-174.257l-209.667-0.932c-12.114 27.023-59.172 149.097-59.172 166.802 0 35.876 68.491 37.274 95.049 41.001 0.466 8.854 0.466 17.706 0.466 27.024 0 4.193-0.466 8.387-0.932 12.58-54.047 0-108.561-9.318-162.608-9.318-6.523 0-15.842 2.795-22.365 3.727-29.354 5.126-58.241 6.523-87.594 6.523L125.28 833.023zM382.938 564.649c46.127 0.466 92.254 1.864 138.38 1.864 8.853 0 17.705-0.466 26.559-0.932-24.229-70.821-52.65-143.04-85.731-210.6L382.938 564.649z"
        p-id="5089"></path>
</svg>