<svg t="1736757643680" class="icon" viewBox="0 0 1024 1024" version="1.1"
  xmlns="http://www.w3.org/2000/svg" p-id="12480" width="200" height="200">
  <path
    d="M426.666667 85.333333H128c-25.6 0-42.666667 17.066667-42.666667 42.666667v298.666667c0 25.6 17.066667 42.666667 42.666667 42.666666h298.666667c25.6 0 42.666667-17.066667 42.666666-42.666666V128c0-25.6-17.066667-42.666667-42.666666-42.666667zM384 384H170.666667V170.666667h213.333333v213.333333zM896 85.333333h-298.666667c-25.6 0-42.666667 17.066667-42.666666 42.666667v298.666667c0 25.6 17.066667 42.666667 42.666666 42.666666h298.666667c25.6 0 42.666667-17.066667 42.666667-42.666666V128c0-25.6-17.066667-42.666667-42.666667-42.666667z m-42.666667 298.666667h-213.333333V170.666667h213.333333v213.333333zM896 554.666667h-298.666667c-25.6 0-42.666667 17.066667-42.666666 42.666666v298.666667c0 25.6 17.066667 42.666667 42.666666 42.666667h298.666667c25.6 0 42.666667-17.066667 42.666667-42.666667v-298.666667c0-25.6-17.066667-42.666667-42.666667-42.666666z m-42.666667 298.666666h-213.333333v-213.333333h213.333333v213.333333zM426.666667 554.666667H128c-25.6 0-42.666667 17.066667-42.666667 42.666666v298.666667c0 25.6 17.066667 42.666667 42.666667 42.666667h298.666667c25.6 0 42.666667-17.066667 42.666666-42.666667v-298.666667c0-25.6-17.066667-42.666667-42.666666-42.666666z m-42.666667 298.666666H170.666667v-213.333333h213.333333v213.333333z"
    p-id="12481"></path>
</svg>