<svg t="1736757889458" class="icon" viewBox="0 0 1024 1024" version="1.1"
  xmlns="http://www.w3.org/2000/svg" p-id="17310" width="200" height="200">
  <path
    d="M192 192c0 53.02-42.98 96-96 96S0 245.02 0 192s42.98-96 96-96 96 42.98 96 96zM96 416c-53.02 0-96 42.98-96 96s42.98 96 96 96 96-42.98 96-96-42.98-96-96-96z m0 320c-53.02 0-96 42.98-96 96s42.98 96 96 96 96-42.98 96-96-42.98-96-96-96z m192-472h704c17.674 0 32-14.326 32-32V152c0-17.674-14.326-32-32-32H288c-17.674 0-32 14.326-32 32v80c0 17.674 14.326 32 32 32z m0 320h704c17.674 0 32-14.326 32-32v-80c0-17.674-14.326-32-32-32H288c-17.674 0-32 14.326-32 32v80c0 17.674 14.326 32 32 32z m0 320h704c17.674 0 32-14.326 32-32v-80c0-17.674-14.326-32-32-32H288c-17.674 0-32 14.326-32 32v80c0 17.674 14.326 32 32 32z"
    fill="" p-id="17311"></path>
</svg>