<svg t="1729843385378" class="icon" viewBox="0 0 1024 1024" version="1.1"
  xmlns="http://www.w3.org/2000/svg" p-id="5098" width="200" height="200">
  <path
    d="M947.264 853.28h-159.392a39.04 39.04 0 0 1-39.04-38.208v-0.032l-0.064-38.24h-52.96v76.512h-79.328v-76.448H563.52v76.448h-105.888v-76.448h-52.896v76.448h-79.392v-76.448H272.384l-0.288 38.08c0 10.656-4.448 20.256-11.584 27.104-7.264 6.944-17.088 11.2-27.936 11.2H73.728a40.32 40.32 0 0 1-27.968-11.2 37.6 37.6 0 0 1-11.616-27.104V279.936c0-21.152 17.76-38.24 39.648-38.24H947.2c10.528 0 20.672 3.968 28.128 11.136 7.136 6.848 11.584 16.448 11.616 27.104v535.008c0 10.656-4.448 20.256-11.584 27.104-7.264 6.944-17.088 11.2-27.936 11.2h-0.128z m-39.712-181.6h-42.4a39.04 39.04 0 0 1-39.04-38.208v-0.032c0-21.152 17.824-38.304 39.808-38.304h41.632V318.24H113.6v276.896h40.288c21.984 0 39.808 17.056 39.808 38.24s-17.76 38.24-39.744 38.24H113.536v105.056h79.2l0.288-50.784c0-21.152 4.576-25.536 26.496-25.536h582.304c21.856 0 26.432 4.384 26.432 25.536v50.784h79.392V671.68h-0.064z m-158.816-124.256h79.392v-178.24h-79.392v178.304z m-185.248 0h79.456v-178.24h-79.456v178.304z m-185.216 0h79.392v-178.24h-79.392v178.304z m-185.344-178.24H272.32v178.304l-78.112-0.128-1.376-178.24z"
    p-id="5099"></path>
</svg>