<svg t="1729828810872" class="icon" viewBox="0 0 1024 1024" version="1.1"
  xmlns="http://www.w3.org/2000/svg" p-id="7120" width="200" height="200">
  <path
    d="M992.736928 678.975315a25.537847 25.537847 0 0 1-1.61357 47.786493L536.996525 1001.968565c-12.598257 7.757548-27.058326 12.008684-41.890757 12.256925a82.447215 82.447215 0 0 1-41.580455-12.256925L28.72201 726.761808a23.738095 23.738095 0 0 1-7.385186-34.195269 23.986337 23.986337 0 0 1 34.19527-7.416216l425.051545 274.927485c10.084812 4.87174 21.814224 4.87174 31.899036 0l451.799569-274.927485c7.292095-7.757548 18.618114-10.239963 28.454684-6.175008z m-0.558543-189.966824a25.568877 25.568877 0 0 1-1.055027 47.072798L536.996525 810.20199a82.695457 82.695457 0 0 1-41.890757 12.505166 82.695457 82.695457 0 0 1-41.580455-12.505166L28.72201 536.081289a23.986337 23.986337 0 0 1-7.385186-34.443511 23.986337 23.986337 0 0 1 34.19527-7.167974l425.051545 274.151731c10.084812 4.87174 21.814224 4.87174 31.899036 0l451.799569-274.927485a25.537847 25.537847 0 0 1 27.927171-4.654529zM497.681274 0.003724c7.633427-0.093091 15.142733 1.55151 22.031435 4.716589l5.026891 2.699626 451.799569 250.413635a54.116652 54.116652 0 0 1 6.299129 87.877499l-3.971865 3.009928-451.830599 274.927485a62.525833 62.525833 0 0 1-53.371927 2.606536l-5.585434-2.606536L37.162221 346.145495a49.524184 49.524184 0 0 1-1.241207-80.926736l3.785683-2.544475L470.622948 7.450969c8.12991-4.96483 17.532057-7.509306 27.058326-7.416215z m1.551509 49.0277h-1.551509L65.244543 306.333761l429.116501 275.70324h4.840709l449.534366-275.206757c2.296234 0 2.296234 0 2.296234-2.296234a2.296234 2.296234 0 0 0-0.558544-1.768721l-0.806785-0.589573-0.930905-0.186181L499.201753 49.031424z"
    fill="#333333" p-id="7121"></path>
</svg>