<svg t="1685359440842" class="icon" viewBox="0 0 1024 1024" version="1.1"
  xmlns="http://www.w3.org/2000/svg" p-id="5681" xmlns:xlink="http://www.w3.org/1999/xlink"
  width="200" height="200">
  <path
    d="M768 832h-128c-35.392 0-64-28.608-64-64V256c0-35.392 28.608-64 64-64h128c35.392 0 64 28.608 64 64v512c0 35.392-28.608 64-64 64z m-384 0h-128c-35.392 0-64-28.608-64-64V256c0-35.392 28.608-64 64-64h128c35.392 0 64 28.608 64 64v512c0 35.392-28.608 64-64 64z"
    fill="" p-id="5682"></path>
</svg>