<svg t="1729829178935" class="icon" viewBox="0 0 1024 1024" version="1.1"
  xmlns="http://www.w3.org/2000/svg" p-id="11424" width="200" height="200">
  <path
    d="M800 960H224c-52.8 0-96-43.2-96-96V160c0-52.8 43.2-96 96-96h576c52.8 0 96 43.2 96 96v704c0 52.8-43.2 96-96 96zM224 128c-17.6 0-32 14.4-32 32v704c0 17.6 14.4 32 32 32h576c17.6 0 32-14.4 32-32V160c0-17.6-14.4-32-32-32H224z"
    fill="#333333" p-id="11425"></path>
  <path
    d="M608 832H416c-17.6 0-32-14.4-32-32s14.4-32 32-32h192c17.6 0 32 14.4 32 32s-14.4 32-32 32z"
    fill="#333333" p-id="11426"></path>
</svg>