<svg t="1737786833367" class="icon" viewBox="0 0 1024 1024" version="1.1"
  xmlns="http://www.w3.org/2000/svg" p-id="4173" width="200" height="200">
  <path
    d="M813.653333 253.013333q59.008 59.008 91.349333 135.68 33.664 79.317333 33.664 166.016t-33.664 166.016q-32.341333 76.672-91.349333 135.68t-135.68 91.349333q-79.317333 33.664-166.016 33.664t-166.016-33.664q-76.672-32.341333-135.68-91.349333t-91.349333-135.68q-33.664-79.317333-33.664-166.016t33.664-166.016q32.341333-76.672 91.349333-135.68 12.330667-12.330667 29.994667-12.330667t30.336 12.330667 12.672 29.994667-12.672 30.336q-47.018667 47.018667-73.344 108.330667-26.666667 64-26.666667 132.992t26.666667 132.992q26.325333 61.312 73.344 108.330667t108.330667 73.344q64 26.666667 132.992 26.666667t132.992-26.666667q61.312-26.325333 108.330667-73.344t73.344-108.330667q26.666667-64 26.666667-132.992t-26.666667-132.992q-26.325333-61.312-73.344-108.330667-12.672-12.672-12.672-30.336t12.672-29.994667 30.336-12.330667 29.994667 12.330667zM512 42.666667q17.664 0 30.165333 12.501333t12.501333 30.165333l0 426.666667q0 17.664-12.501333 30.165333t-30.165333 12.501333-30.165333-12.501333-12.501333-30.165333l0-426.666667q0-17.664 12.501333-30.165333t30.165333-12.501333z"
    fill="#444444" p-id="4174"></path>
</svg>