<svg t="1729839029859" class="icon" viewBox="0 0 1024 1024" version="1.1"
  xmlns="http://www.w3.org/2000/svg" p-id="12460" width="200" height="200">
  <path
    d="M298.666667 757.333333h426.666666c17.493333 0 32-14.506667 32-32V298.666667c0-17.493333-14.506667-32-32-32H298.666667c-17.493333 0-32 14.506667-32 32v426.666666c0 17.493333 14.506667 32 32 32z m32-426.666666h362.666666v362.666666h-362.666666v-362.666666z"
    p-id="12461"></path>
  <path
    d="M981.333333 330.666667v-64h-96V170.666667c0-17.493333-14.506667-32-32-32h-96V42.666667h-64v96h-149.333333V42.666667h-64v96h-149.333333V42.666667h-64v96H170.666667c-17.493333 0-32 14.506667-32 32v96H42.666667v64h96v149.333333H42.666667v64h96v149.333333H42.666667v64h96V853.333333c0 17.493333 14.506667 32 32 32h96V981.333333h64v-96h149.333333V981.333333h64v-96h149.333333V981.333333h64v-96H853.333333c17.493333 0 32-14.506667 32-32v-96H981.333333v-64h-96v-149.333333H981.333333v-64h-96v-149.333333H981.333333z m-160 490.666666H202.666667V202.666667h618.666666v618.666666z"
    p-id="12462"></path>
</svg>