<?xml version="1.0" encoding="UTF-8" standalone="no"?>
<svg
   t="1730265325567"
   class="icon"
   viewBox="0 0 1158 1024"
   version="1.1"
   p-id="6837"
   width="200"
   height="200"
   id="svg71"
   xmlns="http://www.w3.org/2000/svg"
   xmlns:svg="http://www.w3.org/2000/svg">
  <path
     d="M 73.133875,986.75445 A 33.669415,30.901391 0 0 1 39.46446,955.8531 V 924.95171 A 33.669415,30.901391 0 0 1 73.133875,894.05032 H 1084.8662 a 33.669415,30.901391 0 0 1 33.6693,30.90139 v 30.90139 a 33.669415,30.901391 0 0 1 -33.6693,30.90135 z m 0,-242.23596 A 33.669415,30.901391 0 0 1 39.46446,713.6171 v -30.90139 a 33.669415,30.901391 0 0 1 33.669415,-30.9014 H 295.11633 a 33.669415,30.901391 0 0 1 33.66941,30.9014 v 30.90139 a 33.669415,30.901391 0 0 1 -33.66941,30.90139 z m 0,-255.12189 A 33.669415,30.901391 0 0 1 39.46446,458.49521 V 427.59382 A 33.669415,30.901391 0 0 1 73.133875,396.69243 H 389.32336 a 33.669415,30.901391 0 0 1 33.66941,30.90139 v 30.90139 a 33.669415,30.901391 0 0 1 -33.66941,30.90139 z m 0,-254.99827 A 33.669415,30.901391 0 0 1 39.46446,203.49694 v -30.9014 A 33.669415,30.901391 0 0 1 73.133875,141.69415 H 490.23059 a 33.669415,30.901391 0 0 1 33.66942,30.90139 v 30.9014 a 33.669415,30.901391 0 0 1 -33.66942,30.90139 z"
     fill="#666666"
     p-id="6838"
     id="path67"
     style="stroke-width:0.892103" />
  <path
     d="M 814.77008,805.30153 A 78.146712,71.722129 0 0 1 758.67684,782.4963 L 562.38415,596.0373 a 41.009349,37.637895 0 0 1 0,-53.24309 39.022852,35.814712 0 0 1 28.04662,-11.40262 38.989182,35.783811 0 0 1 28.04662,11.40262 l 152.2531,144.55671 V 149.69761 a 38.58515,35.412994 0 0 1 40.03293,-38.03961 38.58515,35.412994 0 0 1 40.06661,38.03961 V 694.95266 L 1011.0628,542.79421 a 37.878092,34.764065 0 0 1 56.0595,0 41.110355,37.730598 0 0 1 0,53.24309 l -196.25897,186.459 a 78.146712,71.722129 0 0 1 -56.09325,22.80523 z"
     fill="#666666"
     p-id="6839"
     id="path69"
     style="stroke-width:0.892103" />
</svg>
