<svg t="1732103608855" class="icon" viewBox="0 0 1024 1024" version="1.1"
  xmlns="http://www.w3.org/2000/svg" p-id="6039" width="200" height="200">
  <path
    d="M182.864 73.136A109.712 109.712 0 0 0 73.12 182.88V841.12a109.712 109.712 0 0 0 109.728 109.728H841.12a109.712 109.712 0 0 0 109.728-109.728V182.88A109.712 109.712 0 0 0 841.12 73.12H182.88z m0-73.136H841.12C942.128 0 1024 81.872 1024 182.864V841.12C1024 942.128 942.128 1024 841.136 1024H182.88C81.872 1024 0 942.128 0 841.136V182.88C0 81.872 81.872 0 182.864 0zM256 413.36v318.08a36.576 36.576 0 0 1-73.136 0v-438.88c0-36.16 46.928-50.384 66.992-20.272l225.568 338.352v-318.08a36.576 36.576 0 1 1 73.152 0v438.88c0 36.16-46.928 50.384-67.008 20.272L256 413.36zM731.424 768a146.288 146.288 0 1 1 0-292.576 146.288 146.288 0 0 1 0 292.576z m0-73.136a73.136 73.136 0 1 0 0-146.288 73.136 73.136 0 0 0 0 146.288z"
    fill="#000000" p-id="6040"></path>
</svg>