<?xml version="1.0" encoding="UTF-8" standalone="no"?>
<svg
  t="1730276051493"
  class="icon"
  viewBox="0 0 1024 1024"
  version="1.1"
  p-id="5919"
  width="200"
  height="200"
  id="svg43"
  xmlns="http://www.w3.org/2000/svg"
  xmlns:svg="http://www.w3.org/2000/svg">
  <path
    d="m 640,862.72 v 33.6 c 0,5.76 -1.408,11.328 -4.096,16.192 -7.936,14.272 -24.576,18.624 -37.184,9.728 L 460.672,824.704 c -3.54922,-2.53522 -6.48068,-5.83857 -8.576,-9.664 -7.872,-14.336 -4.032,-33.152 8.576,-42.048 L 598.72,675.52 c 4.1592,-2.99678 9.14581,-4.62917 14.272,-4.672 14.912,0 27.008,13.696 27.008,30.528 v 33.344 h 128 c 35.34625,0 63.99997,-28.65378 63.99997,-64 C 831.99997,635.37378 803.34625,576 768,576 H 128 c -35.346248,0 -63.999972,-28.65378 -63.999972,-64 0,-35.34622 28.653724,-64 63.999972,-64 h 640 c 106.03874,0 191.99992,116.68133 191.99992,222.72 0,106.03867 -85.96118,192 -191.99992,192 z M 128,161.28 h 768 c 35.34625,0 63.99997,28.65378 63.99997,64 0,35.34622 -28.65372,64 -63.99997,64 H 128 c -35.346248,0 -63.999972,-28.65378 -63.999972,-64 0,-35.34622 28.653724,-64 63.999972,-64 z m 0,573.44 h 192 c 35.34625,0 63.99997,28.65378 63.99997,64 0,35.34622 -28.65372,64 -63.99997,64 H 128 c -35.346248,0 -63.999972,-28.65378 -63.999972,-64 0,-35.34622 28.653724,-64 63.999972,-64 z"
    p-id="5920"
    id="path41"
  />
</svg>