<svg t="1730691095763" class="icon" viewBox="0 0 1024 1024" version="1.1"
  xmlns="http://www.w3.org/2000/svg" p-id="4488" width="200" height="200">
  <path
    d="M853.344 85.344H170.688c-36.256 0-64 27.744-64 64v725.344c0 36.256 27.744 64 64 64h682.656c36.256 0 64-27.744 64-64V149.344c0-36.256-27.744-64-64-64z m-21.344 768H192v-170.656h640v170.656z m0-256H192v-170.656h640v170.656z m-640-256V170.688h640v170.656H192z"
    p-id="4489"></path>
  <path
    d="M320 810.656v-85.344H234.656v85.344zM277.344 213.344H234.688v85.344h85.344V213.344H277.376zM320 554.656v-85.344H234.656v85.344z"
    p-id="4490"></path>
</svg>